<?xml version="1.0" standalone="no"?>
<!DOCTYPE svg PUBLIC "-//W3C//DTD SVG 20010904//EN"
 "http://www.w3.org/TR/2001/REC-SVG-20010904/DTD/svg10.dtd">
<svg version="1.0" xmlns="http://www.w3.org/2000/svg"
 width="804.000000pt" height="774.000000pt" viewBox="0 0 804.000000 774.000000"
 preserveAspectRatio="xMidYMid meet">

<g transform="translate(0.000000,774.000000) scale(0.100000,-0.100000)"
fill="#000000" stroke="none">
<path d="M4155 6241 c-16 -5 -55 -18 -85 -30 -30 -11 -65 -21 -77 -21 -12 0
-25 -4 -28 -10 -3 -5 -14 -10 -24 -10 -10 0 -44 -17 -77 -38 l-59 -38 -90 24
c-72 19 -107 23 -176 19 -47 -2 -107 -1 -133 3 -31 5 -67 2 -104 -7 -31 -8
-77 -20 -102 -26 -56 -13 -229 -127 -273 -178 -61 -73 -85 -105 -107 -142 -18
-31 -27 -37 -55 -37 -18 0 -46 -6 -62 -14 -15 -8 -50 -24 -78 -36 -74 -32
-183 -99 -237 -145 -42 -35 -71 -71 -128 -161 -33 -51 -75 -109 -85 -116 -5
-4 -6 -8 -2 -8 18 0 -67 -91 -99 -106 -19 -9 -34 -22 -34 -30 0 -7 -11 -21
-25 -30 -13 -9 -27 -25 -31 -36 -3 -11 -12 -17 -20 -14 -9 3 -14 -1 -14 -14 0
-11 -9 -36 -20 -57 -10 -21 -21 -49 -24 -63 -3 -14 -13 -50 -22 -80 -12 -43
-14 -81 -9 -175 3 -66 6 -128 6 -139 0 -10 8 -37 18 -60 10 -22 26 -61 36 -86
42 -110 115 -211 177 -244 l35 -20 12 -150 c17 -214 31 -466 32 -571 l1 -90
13 70 c7 39 14 91 14 117 2 80 67 408 112 561 l20 68 32 -7 c38 -9 51 -9 142
0 83 9 258 60 275 81 18 22 51 18 87 -8 27 -19 84 -48 158 -78 11 -4 36 -11
55 -15 42 -9 41 -9 60 -17 58 -24 470 -112 660 -141 52 -8 138 -23 190 -32 52
-10 104 -18 115 -18 97 0 125 14 125 65 0 17 5 29 13 29 6 0 44 -16 82 -36 39
-20 93 -45 120 -56 28 -10 114 -48 191 -84 78 -35 146 -64 153 -64 6 0 11 -4
11 -10 0 -5 6 -10 13 -10 18 0 47 -37 47 -60 0 -10 4 -21 10 -25 10 -6 9 -170
-1 -180 -4 -3 -4 -56 0 -118 19 -371 -11 -520 -133 -652 -25 -28 -46 -53 -46
-56 0 -3 -11 -19 -25 -35 -31 -35 -95 -163 -95 -189 0 -10 -11 -33 -25 -51
-14 -18 -25 -42 -25 -53 0 -11 -8 -22 -18 -25 -23 -8 -68 -75 -77 -115 -3 -16
-12 -35 -20 -41 -8 -6 -17 -26 -20 -43 -12 -54 -112 -229 -162 -284 -60 -64
-130 -153 -163 -207 -14 -23 -40 -48 -58 -56 -17 -8 -32 -18 -32 -23 0 -8 -48
-70 -156 -202 -35 -44 -80 -100 -98 -124 -28 -37 -47 -49 -113 -74 -81 -30
-196 -57 -248 -57 -52 -1 -6 -17 70 -25 39 -4 76 -12 83 -17 8 -7 12 -7 12 3
0 10 3 10 12 1 14 -14 146 -16 180 -3 78 30 106 33 204 22 54 -7 108 -18 119
-25 11 -7 35 -17 54 -21 33 -7 33 -8 28 -51 -2 -24 0 -44 5 -44 15 0 116 80
133 107 15 22 15 26 1 42 -13 14 -14 34 -4 151 6 74 15 137 19 138 5 2 16 10
23 18 8 8 19 14 24 14 5 0 17 10 28 21 10 12 35 32 54 44 19 12 50 36 68 53
18 17 36 32 41 34 13 5 112 90 132 113 32 38 144 176 176 218 18 23 31 46 29
52 -1 5 7 15 18 21 12 5 20 18 20 27 -1 9 2 17 7 17 5 0 6 7 3 15 -9 23 5 38
22 24 8 -6 18 -9 21 -5 4 4 2 11 -5 15 -17 11 23 82 42 75 8 -3 17 3 20 13 4
10 2 19 -3 21 -22 7 -10 24 14 20 18 -4 26 0 31 14 7 24 -3 35 -18 20 -19 -19
-27 -14 -26 18 1 30 17 54 19 28 0 -7 7 14 15 47 8 33 18 69 24 80 21 45 30
139 28 298 -1 93 -6 171 -11 174 -9 6 2 45 15 54 6 4 12 77 13 165 4 197 13
274 31 281 15 5 14 40 -2 51 -13 10 -16 72 -4 72 5 0 10 15 10 34 0 37 49 109
50 74 0 -9 9 -37 20 -62 13 -32 16 -46 7 -46 -8 0 -7 -3 2 -9 12 -8 15 -45 15
-198 0 -178 -3 -237 -19 -380 -9 -71 0 -78 72 -57 l43 12 -7 -26 c-4 -15 -7
-49 -8 -77 -2 -129 -4 -140 -26 -150 -23 -10 -78 -99 -79 -125 0 -9 -22 -62
-50 -118 -27 -56 -50 -104 -50 -105 0 -2 18 -9 41 -16 34 -10 44 -10 64 3 41
27 73 68 107 134 18 36 43 74 55 86 13 11 23 27 23 34 0 16 50 115 61 122 4 3
15 21 24 40 8 19 20 42 25 50 10 17 69 145 80 175 4 11 13 34 20 50 8 17 15
41 17 55 2 14 11 45 20 70 16 45 21 153 8 211 -4 16 -15 31 -26 34 -14 5 -18
12 -14 26 4 11 2 19 -4 19 -6 0 -11 -4 -11 -9 0 -5 -14 -12 -31 -16 -17 -4
-48 -22 -68 -40 -20 -18 -47 -35 -61 -39 -16 -5 -20 -4 -12 2 7 5 10 16 7 24
-4 9 -2 19 4 23 6 3 11 17 11 31 0 13 9 33 21 45 19 19 22 19 38 5 10 -9 33
-16 52 -16 32 0 36 4 58 55 23 50 28 55 57 55 42 0 113 63 147 132 15 29 47
107 72 173 25 66 50 130 55 143 20 48 40 199 40 306 0 121 2 127 57 165 52 35
53 66 7 209 -8 23 -14 56 -14 72 0 30 -23 111 -40 142 -6 10 -10 24 -10 33 0
8 -11 40 -25 71 -14 31 -25 58 -25 60 0 1 26 10 57 19 92 27 164 74 232 150
64 72 76 110 46 135 -12 10 -29 10 -83 1 -167 -31 -182 -31 -240 -4 -56 26
-84 60 -146 178 -14 28 -36 63 -49 80 -12 16 -52 70 -89 120 -81 110 -85 114
-188 195 -64 49 -107 73 -184 103 -103 38 -292 90 -379 102 -26 4 -57 15 -70
25 -46 37 -230 121 -334 153 -59 19 -148 40 -196 46 -49 6 -100 14 -115 16
-15 2 -40 0 -57 -4z m-1467 -947 c25 -51 25 -58 1 -41 -19 15 -39 50 -39 71 0
29 16 17 38 -30z m2599 -133 c18 -27 38 -62 45 -78 6 -15 21 -38 32 -51 15
-16 17 -25 8 -34 -8 -8 -13 -4 -18 16 -3 14 -9 26 -13 26 -4 0 -18 19 -31 43
-12 23 -28 49 -35 57 -17 22 -36 70 -27 70 4 0 22 -22 39 -49z m65 -3 c-6 -6
-14 -9 -17 -6 -3 3 -3 13 1 22 5 12 10 14 17 7 8 -8 8 -14 -1 -23z m41 -58
c26 -47 6 -64 -22 -19 -12 19 -21 40 -21 47 0 23 23 8 43 -28z m-2600 -45 c4
-34 3 -42 -3 -25 -8 25 -13 87 -6 79 2 -2 6 -26 9 -54z m978 -275 c10 -8 36
-30 58 -49 43 -35 88 -91 74 -91 -5 0 -43 33 -85 73 -42 39 -83 78 -92 85 -9
7 -16 18 -16 24 0 6 10 3 22 -8 12 -10 29 -26 39 -34z m-141 -4 c33 -14 74
-35 91 -48 38 -29 90 -81 85 -86 -2 -2 -32 2 -67 9 -68 14 -126 49 -188 113
l-35 36 27 0 c15 0 54 -11 87 -24z m-137 -8 c39 -27 56 -48 57 -67 0 -12 -3
-12 -12 -3 -7 7 -18 12 -25 12 -14 0 -30 11 -63 44 -15 15 -17 22 -8 28 17 10
16 11 51 -14z m587 -73 c0 -21 -11 -45 -21 -45 -8 0 -49 71 -49 84 0 3 7 3 15
0 9 -4 15 0 15 7 1 18 40 -28 40 -46z m920 -148 c35 -72 40 -108 8 -57 -12 19
-30 42 -41 52 -11 10 -14 19 -7 23 7 4 7 12 0 25 -13 24 -13 33 0 25 5 -3 23
-34 40 -68z m-746 -17 c6 -42 6 -44 -9 -26 -9 12 -15 38 -14 65 0 54 12 34 23
-39z m-805 -23 c104 -55 151 -100 77 -74 -39 14 -195 109 -196 119 0 10 54
-10 119 -45z m-132 -43 c-6 -6 -47 9 -47 17 0 5 11 3 25 -3 14 -6 24 -13 22
-14z m40 -20 c-3 -3 -12 -4 -19 -1 -8 3 -5 6 6 6 11 1 17 -2 13 -5z m-60 -46
c77 -38 75 -51 -2 -14 -31 14 -60 26 -65 26 -6 0 -10 5 -10 10 0 15 8 13 77
-22z m-30 -45 c24 -14 43 -26 43 -28 0 -8 -47 11 -94 37 -39 23 -44 28 -22 23
16 -3 49 -18 73 -32z m-28 -44 c18 -11 31 -22 28 -25 -5 -5 -97 35 -97 42 0
11 39 2 69 -17z m-4 -54 c43 -26 32 -33 -21 -13 -33 12 -54 38 -31 38 7 0 30
-11 52 -25z m1235 15 c0 -5 -4 -10 -10 -10 -5 0 -10 5 -10 10 0 6 5 10 10 10
6 0 10 -4 10 -10z m20 -55 c0 -5 -5 -3 -10 5 -5 8 -10 20 -10 25 0 6 5 3 10
-5 5 -8 10 -19 10 -25z m904 -1308 c-3 -9 -12 -17 -20 -17 -17 0 -17 5 -3 32
13 24 33 10 23 -15z m143 -49 c-3 -8 -6 -5 -6 6 -1 11 2 17 5 13 3 -3 4 -12 1
-19z m-37 -88 c-11 -21 -20 -46 -20 -55 0 -8 -4 -15 -10 -15 -17 0 -11 37 13
74 30 48 42 45 17 -4z m-40 -90 c0 -19 -28 -64 -50 -83 -21 -18 -22 -18 -16 2
3 12 9 31 12 44 4 12 11 28 16 35 13 15 38 16 38 2z"/>
<path d="M2089 5224 c-12 -14 -11 -16 5 -13 11 2 21 10 24 17 5 17 -13 15 -29
-4z"/>
<path d="M2737 4026 c-21 -8 -55 -26 -75 -40 -39 -27 -152 -149 -152 -164 0
-4 -11 -19 -25 -32 -25 -24 -34 -60 -14 -60 6 0 34 20 62 45 80 70 187 118
272 123 61 3 78 0 139 -27 37 -17 99 -57 136 -89 103 -87 169 -137 183 -137
14 0 21 64 12 113 -7 39 -118 155 -200 211 -98 66 -243 90 -338 57z"/>
<path d="M3902 3731 c-6 -3 -16 -28 -23 -54 -19 -78 -8 -89 114 -110 56 -10
124 -22 150 -28 61 -11 143 -11 226 1 36 5 118 12 182 16 108 6 121 5 158 -14
23 -12 56 -23 74 -24 17 -1 38 -6 46 -12 11 -9 12 -6 6 14 -4 14 -15 29 -23
34 -9 5 -34 26 -56 46 -88 80 -120 88 -421 100 -126 5 -255 13 -285 18 -86 16
-137 20 -148 13z"/>
<path d="M2719 3520 c-86 -11 -205 -95 -184 -130 11 -17 26 -11 67 26 41 37
100 66 155 77 35 7 53 -7 34 -26 -6 -6 -11 -43 -11 -81 0 -84 25 -137 80 -174
32 -21 44 -23 127 -20 81 3 94 6 118 28 15 14 36 47 48 73 13 30 26 46 34 43
7 -3 13 -2 13 2 0 34 -128 130 -205 155 -44 14 -195 39 -213 36 -4 -1 -32 -5
-63 -9z m183 -106 c16 -34 0 -59 -38 -59 -34 0 -59 38 -43 67 15 29 67 24 81
-8z"/>
<path d="M4408 3193 c7 -3 16 -2 19 1 4 3 -2 6 -13 5 -11 0 -14 -3 -6 -6z"/>
<path d="M4470 3182 c0 -5 12 -12 28 -15 15 -3 57 -17 95 -31 79 -30 91 -15
15 18 -61 27 -138 43 -138 28z"/>
<path d="M3567 2833 c-11 -10 -8 -103 3 -103 6 0 10 -7 10 -16 0 -16 27 -43
43 -44 12 0 8 25 -8 56 -8 16 -15 41 -15 56 0 46 -15 69 -33 51z"/>
<path d="M3700 2513 c0 -30 -1 -31 -30 -23 -17 5 -44 16 -62 24 -17 9 -39 16
-48 16 -15 0 -67 -37 -99 -71 -9 -10 -33 -35 -53 -56 l-37 -39 20 -33 20 -33
92 4 c79 3 102 8 160 37 37 18 67 37 67 43 0 5 10 18 22 28 l23 18 -24 44
c-13 23 -30 50 -37 58 -12 12 -14 10 -14 -17z"/>
<path d="M3230 2435 c-12 -15 0 -55 24 -74 8 -7 33 -15 56 -18 50 -7 53 11 10
60 -32 37 -74 52 -90 32z"/>
<path d="M4169 2215 c-13 -8 -32 -18 -41 -21 -10 -3 -18 -11 -18 -16 0 -6 -6
-8 -14 -5 -7 3 -20 -3 -29 -14 -9 -10 -25 -19 -35 -19 -10 0 -22 -4 -27 -9
-28 -25 -186 -50 -346 -54 -167 -5 -185 -8 -272 -52 -15 -8 -34 -12 -42 -9
-18 7 -70 -4 -61 -13 12 -13 105 -26 211 -30 69 -3 112 -9 117 -16 5 -9 11 -7
20 5 15 20 66 14 75 -8 8 -22 -13 -40 -62 -54 -75 -21 -75 -36 0 -43 50 -5 81
-2 133 14 92 29 217 98 278 156 57 54 106 122 98 135 -4 5 3 12 13 14 21 6 47
41 35 48 -5 3 -19 -2 -33 -9z"/>
<path d="M2895 2098 c11 -34 41 -64 116 -114 63 -42 99 -55 99 -36 0 5 -9 17
-20 27 -11 10 -25 33 -32 51 -9 24 -22 38 -50 49 -21 8 -45 15 -52 15 -8 0
-16 4 -18 9 -1 4 -14 12 -26 16 -22 6 -23 5 -17 -17z"/>
<path d="M3228 2013 c7 -3 16 -2 19 1 4 3 -2 6 -13 5 -11 0 -14 -3 -6 -6z"/>
<path d="M4299 1148 c-9 -70 -4 -128 10 -128 4 0 32 27 61 61 37 43 50 63 42
71 -8 8 -20 7 -43 -3 -25 -10 -34 -10 -37 -1 -5 16 -32 15 -33 0z"/>
<path d="M4695 1041 c-3 -6 -17 -11 -30 -11 -42 0 -121 -85 -137 -147 -9 -33
-13 -32 176 -60 l39 -5 -8 98 c-7 94 -25 149 -40 125z"/>
<path d="M3047 1000 c-16 -18 -28 -26 -32 -19 -5 7 -13 5 -25 -6 -9 -8 -28
-18 -41 -20 -29 -5 -79 -58 -79 -83 0 -21 115 -202 129 -202 6 0 6 13 0 36 -9
31 -6 43 26 107 20 40 45 87 57 104 15 26 18 42 13 73 -4 22 -10 40 -15 40 -5
0 -20 -14 -33 -30z"/>
<path d="M4079 833 c-13 -16 -12 -17 4 -4 16 13 21 21 13 21 -2 0 -10 -8 -17
-17z"/>
<path d="M5145 508 c-44 -31 -85 -70 -96 -90 -14 -27 -3 -22 30 13 16 17 51
39 78 49 26 10 48 24 48 31 0 22 -28 20 -60 -3z"/>
<path d="M3285 410 c3 -5 11 -10 16 -10 6 0 7 5 4 10 -3 6 -11 10 -16 10 -6 0
-7 -4 -4 -10z"/>
<path d="M5287 389 c-4 -13 1 -28 10 -38 15 -15 15 -16 -1 -19 -12 -3 -14 -7
-7 -16 6 -7 11 -41 11 -77 1 -35 6 -103 12 -152 l12 -87 58 0 58 0 -6 33 c-3
17 -10 46 -14 62 -5 17 -12 56 -16 87 -5 43 -17 76 -50 129 -24 39 -44 75 -44
79 0 20 -18 18 -23 -1z"/>
<path d="M3697 393 c-2 -5 -7 -26 -10 -48 -3 -22 -3 -33 -1 -24 3 9 16 21 29
27 31 14 34 52 6 52 -11 0 -22 -3 -24 -7z"/>
<path d="M5010 379 c0 -5 5 -7 10 -4 6 3 10 8 10 11 0 2 -4 4 -10 4 -5 0 -10
-5 -10 -11z"/>
<path d="M3625 359 c-6 -19 0 -38 9 -28 10 12 16 49 7 49 -5 0 -13 -9 -16 -21z"/>
<path d="M3360 342 c0 -12 19 -26 26 -19 2 2 -2 10 -11 17 -9 8 -15 8 -15 2z"/>
<path d="M3220 326 c0 -9 5 -16 10 -16 6 0 10 4 10 9 0 6 -4 13 -10 16 -5 3
-10 -1 -10 -9z"/>
<path d="M3630 28 l0 -28 78 0 c72 0 115 11 100 25 -3 3 -44 12 -92 18 l-86
13 0 -28z"/>
<path d="M3505 37 c-33 -5 -78 -15 -100 -23 -38 -12 -36 -13 68 -14 99 0 107
1 107 19 0 27 -6 28 -75 18z"/>
</g>
</svg>
